# Blender 4.4.1
# www.blender.org
mtllib punch.mtl
o 円錐
v -1.000000 1.000000 -0.000000
v -1.000000 0.980785 -0.195090
v -1.000000 0.923880 -0.382683
v -1.000000 0.831470 -0.555570
v -1.000000 0.707107 -0.707107
v -1.000000 0.555570 -0.831470
v -1.000000 0.382684 -0.923880
v -1.000000 0.195091 -0.980785
v -1.000000 0.000000 -1.000000
v -1.000000 -0.195090 -0.980785
v -1.000000 -0.382683 -0.923880
v -1.000000 -0.555570 -0.831470
v -1.000000 -0.707107 -0.707107
v -1.000000 -0.831469 -0.555570
v -1.000000 -0.923879 -0.382683
v -1.000000 -0.980785 -0.195090
v -1.000000 -1.000000 -0.000000
v -1.000000 -0.980785 0.195090
v -1.000000 -0.923879 0.382683
v -1.000000 -0.831469 0.555570
v -1.000000 -0.707107 0.707107
v -1.000000 -0.555570 0.831470
v -1.000000 -0.382683 0.923879
v -1.000000 -0.195090 0.980785
v -1.000000 0.000000 1.000000
v -1.000000 0.195091 0.980785
v -1.000000 0.382684 0.923879
v -1.000000 0.555570 0.831470
v -1.000000 0.707107 0.707107
v -1.000000 0.831470 0.555570
v -1.000000 0.923880 0.382683
v -1.000000 0.980785 0.195090
v 1.000000 -0.000000 0.000000
vn 0.4455 0.8910 -0.0878
vn 0.4455 0.8567 -0.2599
vn 0.4455 0.7896 -0.4220
vn 0.4455 0.6921 -0.5680
vn 0.4455 0.5680 -0.6921
vn 0.4455 0.4220 -0.7896
vn 0.4455 0.2599 -0.8567
vn 0.4455 0.0878 -0.8910
vn 0.4455 -0.0878 -0.8910
vn 0.4455 -0.2599 -0.8567
vn 0.4455 -0.4220 -0.7896
vn 0.4455 -0.5680 -0.6921
vn 0.4455 -0.6921 -0.5680
vn 0.4455 -0.7896 -0.4220
vn 0.4455 -0.8567 -0.2599
vn 0.4455 -0.8910 -0.0878
vn 0.4455 -0.8910 0.0878
vn 0.4455 -0.8567 0.2599
vn 0.4455 -0.7896 0.4220
vn 0.4455 -0.6921 0.5680
vn 0.4455 -0.5680 0.6921
vn 0.4455 -0.4220 0.7896
vn 0.4455 -0.2599 0.8567
vn 0.4455 -0.0878 0.8910
vn 0.4455 0.0878 0.8910
vn 0.4455 0.2599 0.8567
vn 0.4455 0.4220 0.7896
vn 0.4455 0.5680 0.6921
vn 0.4455 0.6921 0.5680
vn 0.4455 0.7896 0.4220
vn -1.0000 -0.0000 -0.0000
vn 0.4455 0.8567 0.2599
vn 0.4455 0.8910 0.0878
vt 0.019006 0.249450
vt 0.349793 0.349793
vt 0.005786 0.315911
vt 0.005786 0.383675
vt 0.019006 0.450136
vt 0.044938 0.512741
vt 0.082585 0.569085
vt 0.130501 0.617000
vt 0.186845 0.654648
vt 0.249450 0.680580
vt 0.315911 0.693800
vt 0.383675 0.693800
vt 0.450136 0.680579
vt 0.512741 0.654647
vt 0.569085 0.617000
vt 0.617000 0.569084
vt 0.654648 0.512741
vt 0.680580 0.450136
vt 0.693800 0.383674
vt 0.693799 0.315911
vt 0.680580 0.249449
vt 0.654647 0.186844
vt 0.617000 0.130501
vt 0.569084 0.082585
vt 0.512741 0.044938
vt 0.450136 0.019006
vt 0.383674 0.005786
vt 0.315911 0.005786
vt 0.249449 0.019006
vt 0.186844 0.044938
vt 0.130501 0.082585
vt 0.082585 0.130501
vt 0.985440 0.697683
vt 0.831631 0.985440
vt 0.543873 0.831631
vt 0.044938 0.186845
vt 0.535050 0.787271
vt 0.535050 0.742042
vt 0.543873 0.697683
vt 0.561182 0.655897
vt 0.586309 0.618291
vt 0.618291 0.586309
vt 0.655897 0.561182
vt 0.697683 0.543873
vt 0.742042 0.535050
vt 0.787271 0.535050
vt 0.831631 0.543873
vt 0.873416 0.561182
vt 0.911023 0.586309
vt 0.943004 0.618291
vt 0.968132 0.655897
vt 0.994264 0.742042
vt 0.994264 0.787271
vt 0.985440 0.831631
vt 0.968132 0.873416
vt 0.943004 0.911023
vt 0.911023 0.943004
vt 0.873417 0.968132
vt 0.787271 0.994264
vt 0.742043 0.994264
vt 0.697683 0.985440
vt 0.655897 0.968132
vt 0.618291 0.943004
vt 0.586309 0.911023
vt 0.561182 0.873417
s 0
usemtl マテリアル
f 1/1/1 33/2/1 2/3/1
f 2/3/2 33/2/2 3/4/2
f 3/4/3 33/2/3 4/5/3
f 4/5/4 33/2/4 5/6/4
f 5/6/5 33/2/5 6/7/5
f 6/7/6 33/2/6 7/8/6
f 7/8/7 33/2/7 8/9/7
f 8/9/8 33/2/8 9/10/8
f 9/10/9 33/2/9 10/11/9
f 10/11/10 33/2/10 11/12/10
f 11/12/11 33/2/11 12/13/11
f 12/13/12 33/2/12 13/14/12
f 13/14/13 33/2/13 14/15/13
f 14/15/14 33/2/14 15/16/14
f 15/16/15 33/2/15 16/17/15
f 16/17/16 33/2/16 17/18/16
f 17/18/17 33/2/17 18/19/17
f 18/19/18 33/2/18 19/20/18
f 19/20/19 33/2/19 20/21/19
f 20/21/20 33/2/20 21/22/20
f 21/22/21 33/2/21 22/23/21
f 22/23/22 33/2/22 23/24/22
f 23/24/23 33/2/23 24/25/23
f 24/25/24 33/2/24 25/26/24
f 25/26/25 33/2/25 26/27/25
f 26/27/26 33/2/26 27/28/26
f 27/28/27 33/2/27 28/29/27
f 28/29/28 33/2/28 29/30/28
f 29/30/29 33/2/29 30/31/29
f 30/31/30 33/2/30 31/32/30
f 16/33/31 24/34/31 32/35/31
f 31/32/32 33/2/32 32/36/32
f 32/36/33 33/2/33 1/1/33
f 32/35/31 1/37/31 2/38/31
f 2/38/31 3/39/31 4/40/31
f 4/40/31 5/41/31 6/42/31
f 6/42/31 7/43/31 8/44/31
f 8/44/31 9/45/31 10/46/31
f 10/46/31 11/47/31 12/48/31
f 12/48/31 13/49/31 14/50/31
f 14/50/31 15/51/31 16/33/31
f 16/33/31 17/52/31 18/53/31
f 18/53/31 19/54/31 20/55/31
f 20/55/31 21/56/31 22/57/31
f 22/57/31 23/58/31 24/34/31
f 24/34/31 25/59/31 26/60/31
f 26/60/31 27/61/31 28/62/31
f 28/62/31 29/63/31 30/64/31
f 30/64/31 31/65/31 32/35/31
f 32/35/31 2/38/31 8/44/31
f 2/38/31 4/40/31 8/44/31
f 4/40/31 6/42/31 8/44/31
f 8/44/31 10/46/31 16/33/31
f 10/46/31 12/48/31 16/33/31
f 12/48/31 14/50/31 16/33/31
f 16/33/31 18/53/31 24/34/31
f 18/53/31 20/55/31 24/34/31
f 20/55/31 22/57/31 24/34/31
f 24/34/31 26/60/31 32/35/31
f 26/60/31 28/62/31 32/35/31
f 28/62/31 30/64/31 32/35/31
f 32/35/31 8/44/31 16/33/31
