# Blender 5.0.1
# www.blender.org
mtllib explosion.mtl
o ICO球
v 0.000000 -1.000000 0.000000
v 0.862501 -0.560976 0.593453
v -0.406941 -0.560977 1.005926
v -0.894426 -0.447216 0.000000
v -0.406941 -0.560977 -1.153783
v 0.862501 -0.560976 -0.741309
v 0.294779 0.574468 1.005926
v -0.974663 0.574468 0.593453
v -0.723607 0.447220 -0.525725
v 0.294779 0.574468 -1.153783
v 1.079346 0.574463 -0.073928
v 0.000000 1.000000 0.000000
v -0.262310 -1.073116 0.560790
v 0.483844 -1.073115 0.318346
v 0.277617 -0.660651 0.953070
v 0.850648 -0.525736 0.000000
v 0.425323 -0.850654 -0.309011
v -0.525730 -0.850652 0.000000
v -0.929702 -0.660649 0.560792
v -0.162456 -0.850654 -0.499995
v -0.688189 -0.525736 -0.499997
v 0.277617 -0.660651 -1.100926
v 1.151237 0.006746 0.318347
v 1.151237 0.006746 -0.466204
v -0.056081 0.006746 1.195519
v 0.690082 0.006746 0.953076
v -0.951058 0.000000 0.309013
v -0.587786 0.000000 0.809017
v -0.587786 0.000000 -0.809017
v -0.951058 0.000000 -0.309013
v 0.587786 0.000000 -0.809017
v 0.000000 0.000000 -1.000000
v 0.817539 0.674140 0.560792
v -0.389779 0.674142 0.953070
v -0.850648 0.525736 0.000000
v -0.262869 0.525738 -0.809012
v 0.688189 0.525736 -0.499997
v 0.150148 1.086607 0.560790
v 0.525730 0.850652 0.000000
v -0.596006 1.086607 0.318346
v -0.425323 0.850654 -0.309011
v 0.162456 0.850654 -0.499995
vn -0.0493 -0.9872 -0.1518
vn 0.8158 -0.5761 -0.0505
vn -0.2649 -0.9325 -0.2455
vn -0.2680 -0.9435 -0.1947
vn 0.1024 -0.9435 -0.3151
vn 0.8813 -0.4703 -0.0455
vn 0.0247 -0.3304 0.9435
vn -0.9940 -0.0655 -0.0874
vn -0.9183 -0.0551 -0.3921
vn 0.5008 0.1422 -0.8538
vn 0.8026 -0.1256 0.5831
vn -0.5862 0.0935 0.8048
vn -0.9921 -0.1256 -0.0000
vn -0.2781 0.4363 -0.8558
vn 0.5127 0.1490 -0.8456
vn 0.4089 0.6617 0.6284
vn -0.4713 0.6617 0.5831
vn -0.7002 0.6617 -0.2680
vn -0.3353 0.8416 -0.4234
vn 0.3583 0.8317 -0.4241
vn 0.2680 0.9435 -0.1947
vn 0.4911 0.7947 -0.3568
vn 0.5097 0.8247 -0.2452
vn -0.1024 0.9435 -0.3151
vn -0.1876 0.7947 -0.5773
vn -0.4713 0.6617 -0.5831
vn -0.0604 0.9288 -0.3657
vn -0.7226 0.5589 -0.4068
vn -0.8370 0.5027 -0.2162
vn 0.0541 0.9845 -0.1665
vn -0.1876 0.7947 0.5773
vn 0.0385 0.6617 0.7488
vn 0.2668 0.9391 -0.2165
vn 0.5257 0.8506 -0.0058
vn 0.4508 0.8914 0.0460
vn 0.6077 0.5021 -0.6153
vn 0.4785 0.3752 -0.7939
vn 0.8536 0.1331 -0.5037
vn -0.5281 0.0440 -0.8480
vn -0.3035 0.1876 -0.9342
vn -0.5346 0.3304 -0.7779
vn -0.9050 0.3304 -0.2680
vn -0.9822 0.1876 -0.0000
vn -0.9758 0.0635 -0.2091
vn -0.5199 -0.0297 0.8537
vn -0.5880 -0.0001 0.8089
vn -0.0247 0.3304 0.9435
vn 0.5746 0.3304 0.7488
vn 0.7947 0.1876 0.5773
vn 0.8897 0.3304 0.3151
vn 0.2856 -0.3819 -0.8790
vn 0.2979 0.2653 -0.9170
vn 0.1034 0.1925 -0.9758
vn -0.8026 0.1256 -0.5831
vn -0.7947 -0.1876 -0.5773
vn -0.8897 -0.3304 -0.3151
vn -0.7696 -0.3085 0.5591
vn -0.7936 0.1941 0.5766
vn -0.6533 0.0544 0.7551
vn 0.3066 0.1256 0.9435
vn 0.3035 -0.1876 0.9342
vn 0.5346 -0.3304 0.7779
vn 0.9921 0.1256 -0.0000
vn 0.8708 -0.4916 -0.0000
vn 0.8835 -0.4670 0.0363
vn 0.3247 -0.9042 -0.2775
vn 0.0801 -0.9658 -0.2467
vn -0.1059 -0.9232 -0.3694
vn -0.5174 -0.8372 -0.1774
vn -0.4911 -0.7947 -0.3568
vn -0.7240 -0.6617 -0.1947
vn -0.7064 -0.6456 -0.2901
vn -0.5236 -0.8472 -0.0901
vn -0.4089 -0.6617 0.6284
vn 0.5842 -0.8102 0.0479
vn 0.7060 -0.6442 -0.2943
vn 0.0820 -0.9369 -0.3399
vn -0.0385 -0.6617 0.7488
vn 0.1876 -0.7947 0.5773
vn 0.4713 -0.6617 0.5831
vt 0.542907 0.243305
vt 0.654736 0.286303
vt 0.515989 0.367414
vt 0.734833 0.294141
vt 0.706025 0.178426
vt 0.435447 0.259455
vt 0.486324 0.146364
vt 0.612295 0.156072
vt 0.300582 0.246919
vt 0.237139 0.323445
vt 0.164239 0.266750
vt 0.376225 0.036245
vt 0.369691 0.135925
vt 0.283137 0.000000
vt 0.582894 0.687831
vt 0.628321 0.796018
vt 0.492067 0.746203
vt 0.614022 0.432136
vt 0.602173 0.577718
vt 0.496610 0.507426
vt 0.972232 0.126710
vt 0.981452 0.268907
vt 0.851827 0.172787
vt 0.238676 0.123831
vt 0.725478 0.780619
vt 0.675756 0.668099
vt 0.806006 0.701376
vt 0.488646 0.632422
vt 0.572811 0.911718
vt 0.458194 0.911718
vt 0.504403 0.796018
vt 0.860993 0.037673
vt 0.153328 0.015670
vt 0.077686 0.130826
vt 0.022651 0.011319
vt 0.920604 0.642493
vt 0.790449 0.586911
vt 0.924912 0.500073
vt 0.026490 0.658593
vt 0.013817 0.549280
vt 0.117113 0.600189
vt 0.223090 0.808243
vt 0.117112 0.724571
vt 0.226398 0.660007
vt 0.458194 0.932811
vt 0.376225 1.000000
vt 0.376225 0.875618
vt 0.299931 0.581504
vt 0.212419 0.548752
vt 0.087842 0.917882
vt -0.000000 0.917882
vt 0.049703 0.808243
vt 0.299931 0.705886
vt 0.109709 0.458324
vt 0.000000 0.429663
vt 0.253140 0.443664
vt 0.780995 0.432136
vt 0.675756 0.526911
vt 0.000000 0.155709
vt 0.422780 0.796018
vt 0.741905 0.114117
vt 0.734833 -0.000000
vt 0.734833 0.250707
vt 0.572811 0.922037
vt 0.572811 0.796017
vt 0.673883 0.849899
vt 0.167094 0.928754
vt 0.087842 0.892436
vt 0.167094 0.808243
vt 0.013815 0.750535
vt 0.386505 0.675912
vt 0.403300 0.568245
vt 0.376225 0.796018
vt 0.026691 0.258818
vt 0.836795 0.296270
vt 0.939770 0.393397
vt 0.926160 0.705572
vt 0.857511 0.822552
vt 0.088261 0.374164
vt 0.171321 0.429663
vt 0.545309 -0.000000
vt 0.676565 0.036941
vt 0.404501 0.015974
vt 0.376225 0.153011
vt 0.675756 0.657692
vt 0.376225 0.375853
vt 0.498781 0.432136
vt 0.634975 0.395792
vt 0.376225 0.286315
s 0
usemtl マテリアル
f 1/1/1 14/2/1 13/3/1
f 2/4/2 14/2/2 16/5/2
f 1/1/3 13/3/3 18/6/3
f 1/1/4 18/6/4 20/7/4
f 1/1/5 20/7/5 17/8/5
f 2/9/6 16/10/6 23/11/6
f 3/12/7 15/13/7 25/14/7
f 4/15/8 19/16/8 27/17/8
f 5/18/9 21/19/9 29/20/9
f 6/21/10 22/22/10 31/23/10
f 2/9/11 23/11/11 26/24/11
f 3/25/12 25/26/12 28/27/12
f 4/15/13 27/17/13 30/28/13
f 5/29/14 29/30/14 32/31/14
f 6/21/15 31/23/15 24/32/15
f 7/33/16 33/34/16 38/35/16
f 8/36/17 34/37/17 40/38/17
f 9/39/18 35/40/18 41/41/18
f 10/42/19 36/43/19 42/44/19
f 11/45/20 37/46/20 39/47/20
f 39/48/21 42/44/21 12/49/21
f 39/50/22 37/51/22 42/52/22
f 37/53/23 10/42/23 42/44/23
f 42/44/24 41/41/24 12/49/24
f 42/44/25 36/43/25 41/41/25
f 36/43/26 9/39/26 41/41/26
f 41/41/27 40/54/27 12/49/27
f 41/41/28 35/40/28 40/54/28
f 35/40/29 8/55/29 40/54/29
f 40/54/30 38/56/30 12/49/30
f 40/38/31 34/37/31 38/57/31
f 34/37/32 7/58/32 38/57/32
f 38/56/33 39/48/33 12/49/33
f 38/35/34 33/34/34 39/59/34
f 33/60/35 11/45/35 39/47/35
f 24/32/36 37/61/36 11/62/36
f 24/32/37 31/23/37 37/61/37
f 31/23/38 10/63/38 37/61/38
f 32/64/39 36/65/39 10/66/39
f 32/67/40 29/68/40 36/69/40
f 29/70/41 9/39/41 36/43/41
f 30/28/42 35/71/42 9/72/42
f 30/28/43 27/17/43 35/71/43
f 27/17/44 8/73/44 35/71/44
f 28/27/45 34/37/45 8/36/45
f 28/27/46 25/26/46 34/37/46
f 25/26/47 7/58/47 34/37/47
f 26/24/48 33/34/48 7/33/48
f 26/24/49 23/11/49 33/34/49
f 23/11/50 11/74/50 33/34/50
f 31/23/51 32/75/51 10/63/51
f 31/23/52 22/22/52 32/75/52
f 22/22/53 5/76/53 32/75/53
f 29/20/54 30/28/54 9/72/54
f 29/20/55 21/19/55 30/28/55
f 21/19/56 4/15/56 30/28/56
f 27/77/57 28/27/57 8/36/57
f 27/77/58 19/78/58 28/27/58
f 19/78/59 3/25/59 28/27/59
f 25/14/60 26/24/60 7/33/60
f 25/14/61 15/13/61 26/24/61
f 15/13/62 2/9/62 26/24/62
f 23/11/63 24/79/63 11/74/63
f 23/11/64 16/10/64 24/79/64
f 16/10/65 6/80/65 24/79/65
f 17/8/66 22/81/66 6/82/66
f 17/8/67 20/7/67 22/81/67
f 20/7/68 5/83/68 22/81/68
f 20/7/69 21/84/69 5/83/69
f 20/7/70 18/6/70 21/84/70
f 18/85/71 4/15/71 21/19/71
f 18/85/72 19/16/72 4/15/72
f 18/6/73 13/3/73 19/86/73
f 13/3/74 3/87/74 19/86/74
f 16/5/75 17/8/75 6/82/75
f 16/5/76 14/2/76 17/8/76
f 14/2/77 1/1/77 17/8/77
f 13/3/78 15/88/78 3/87/78
f 13/3/79 14/2/79 15/88/79
f 14/89/80 2/9/80 15/13/80
