# Blender 5.0.1
# www.blender.org
mtllib enemybullet.mtl
o 円柱
v 0.000000 0.028538 0.134344
v -0.000000 -0.023778 -0.146938
v -0.020021 0.024556 0.134344
v -0.036993 0.013215 0.134344
v -0.048334 -0.003757 0.134344
v -0.052316 -0.023778 0.134344
v -0.048334 -0.043799 0.134344
v -0.036993 -0.060771 0.134344
v -0.020021 -0.072112 0.134344
v 0.000000 -0.076094 0.134344
v 0.020021 -0.072112 0.134344
v 0.036993 -0.060771 0.134344
v 0.048334 -0.043799 0.134344
v 0.052316 -0.023778 0.134344
v 0.048334 -0.003757 0.134344
v 0.036993 0.013215 0.134344
v 0.020021 0.024556 0.134344
v 0.000000 0.027777 0.077959
v 0.000000 0.018053 0.031417
v -0.000000 0.012692 -0.025817
v -0.000000 0.007863 -0.078573
v -0.000000 0.004465 -0.130146
v -0.010808 0.002315 -0.130146
v -0.012109 0.005455 -0.078573
v -0.013957 0.009916 -0.025817
v -0.016008 0.014869 0.031417
v -0.019729 0.023853 0.077959
v -0.019971 -0.003807 -0.130146
v -0.022374 -0.001404 -0.078573
v -0.025788 0.002010 -0.025817
v -0.029579 0.005801 0.031417
v -0.036455 0.012677 0.077959
v -0.026093 -0.012970 -0.130146
v -0.029233 -0.011669 -0.078573
v -0.033694 -0.009821 -0.025817
v -0.038647 -0.007770 0.031417
v -0.047631 -0.004049 0.077959
v -0.028243 -0.023778 -0.130146
v -0.031641 -0.023778 -0.078573
v -0.036470 -0.023778 -0.025817
v -0.041831 -0.023778 0.031417
v -0.051555 -0.023778 0.077959
v -0.026093 -0.034586 -0.130146
v -0.029233 -0.035887 -0.078573
v -0.033694 -0.037735 -0.025817
v -0.038647 -0.039786 0.031417
v -0.047631 -0.043507 0.077959
v -0.019971 -0.043749 -0.130146
v -0.022374 -0.046152 -0.078573
v -0.025788 -0.049566 -0.025817
v -0.029579 -0.053357 0.031417
v -0.036455 -0.060233 0.077959
v -0.010808 -0.049871 -0.130146
v -0.012109 -0.053011 -0.078573
v -0.013957 -0.057472 -0.025817
v -0.016008 -0.062425 0.031417
v -0.019729 -0.071409 0.077959
v -0.000000 -0.052021 -0.130146
v -0.000000 -0.055419 -0.078573
v -0.000000 -0.060248 -0.025817
v 0.000000 -0.065609 0.031417
v 0.000000 -0.075333 0.077959
v 0.010808 -0.049871 -0.130146
v 0.012109 -0.053011 -0.078573
v 0.013957 -0.057472 -0.025817
v 0.016008 -0.062425 0.031417
v 0.019729 -0.071409 0.077959
v 0.019971 -0.043749 -0.130146
v 0.022374 -0.046152 -0.078573
v 0.025788 -0.049566 -0.025817
v 0.029579 -0.053357 0.031417
v 0.036455 -0.060233 0.077959
v 0.026093 -0.034586 -0.130146
v 0.029233 -0.035887 -0.078573
v 0.033694 -0.037735 -0.025817
v 0.038647 -0.039786 0.031417
v 0.047631 -0.043507 0.077959
v 0.028243 -0.023778 -0.130146
v 0.031641 -0.023778 -0.078573
v 0.036470 -0.023778 -0.025817
v 0.041831 -0.023778 0.031417
v 0.051555 -0.023778 0.077959
v 0.026093 -0.012970 -0.130146
v 0.029233 -0.011669 -0.078573
v 0.033694 -0.009821 -0.025817
v 0.038647 -0.007770 0.031417
v 0.047631 -0.004049 0.077959
v 0.019971 -0.003807 -0.130146
v 0.022374 -0.001404 -0.078573
v 0.025788 0.002010 -0.025817
v 0.029579 0.005801 0.031417
v 0.036455 0.012677 0.077959
v 0.010808 0.002315 -0.130146
v 0.012109 0.005455 -0.078573
v 0.013957 0.009916 -0.025817
v 0.016008 0.014869 0.031417
v 0.019729 0.023853 0.077959
vn -0.0000 0.5110 -0.8596
vn -0.0000 -0.0000 -1.0000
vn -0.1956 0.4722 -0.8595
vn -0.3614 0.3614 -0.8596
vn -0.4722 0.1956 -0.8595
vn -0.5111 -0.0000 -0.8596
vn -0.4722 -0.1956 -0.8595
vn -0.3614 -0.3614 -0.8596
vn -0.1956 -0.4722 -0.8595
vn -0.0000 -0.5111 -0.8596
vn 0.1956 -0.4722 -0.8595
vn 0.3614 -0.3614 -0.8596
vn 0.4722 -0.1956 -0.8595
vn 0.5111 -0.0000 -0.8596
vn 0.4722 0.1956 -0.8595
vn 0.3614 0.3614 -0.8596
vn 0.1956 0.4722 -0.8595
vn -0.0000 -0.0000 1.0000
vn 0.3804 0.9185 -0.1082
vn -0.0000 0.9999 -0.0135
vn 0.3826 0.9238 -0.0135
vn 0.3783 0.9134 -0.1502
vn -0.0000 0.9941 -0.1082
vn 0.3811 0.9199 -0.0922
vn -0.0000 0.9887 -0.1502
vn 0.3815 0.9210 -0.0786
vn -0.0000 0.9957 -0.0922
vn 0.3818 0.9219 -0.0658
vn -0.0000 0.9969 -0.0786
vn 0.7030 0.7029 -0.1082
vn 0.7070 0.7070 -0.0135
vn 0.7041 0.7041 -0.0922
vn 0.6991 0.6991 -0.1502
vn 0.7056 0.7056 -0.0658
vn 0.7049 0.7049 -0.0786
vn 0.9185 0.3804 -0.1082
vn 0.9238 0.3827 -0.0135
vn 0.9199 0.3811 -0.0922
vn 0.9134 0.3783 -0.1502
vn 0.9219 0.3818 -0.0658
vn 0.9210 0.3815 -0.0786
vn 0.9941 -0.0000 -0.1082
vn 0.9999 -0.0000 -0.0135
vn 0.9887 -0.0000 -0.1502
vn 0.9957 -0.0000 -0.0922
vn 0.9969 -0.0000 -0.0786
vn 0.9978 -0.0000 -0.0658
vn 0.9185 -0.3804 -0.1082
vn 0.9238 -0.3826 -0.0135
vn 0.9199 -0.3811 -0.0922
vn 0.9134 -0.3783 -0.1502
vn 0.9210 -0.3815 -0.0786
vn 0.9219 -0.3818 -0.0658
vn 0.7030 -0.7030 -0.1082
vn 0.7070 -0.7070 -0.0135
vn 0.6991 -0.6991 -0.1502
vn 0.7049 -0.7049 -0.0786
vn 0.7041 -0.7041 -0.0922
vn 0.7056 -0.7056 -0.0658
vn 0.3804 -0.9185 -0.1082
vn 0.3827 -0.9238 -0.0135
vn 0.3783 -0.9134 -0.1502
vn 0.3815 -0.9210 -0.0786
vn 0.3811 -0.9199 -0.0922
vn 0.3818 -0.9219 -0.0658
vn -0.0000 -0.9941 -0.1082
vn -0.0000 -0.9999 -0.0135
vn -0.0000 -0.9887 -0.1502
vn -0.0000 -0.9957 -0.0922
vn -0.0000 -0.9969 -0.0786
vn -0.0000 -0.9978 -0.0658
vn -0.3827 -0.9238 -0.0135
vn -0.3804 -0.9185 -0.1082
vn -0.3811 -0.9199 -0.0922
vn -0.3783 -0.9134 -0.1502
vn -0.3818 -0.9219 -0.0658
vn -0.3815 -0.9210 -0.0786
vn -0.7070 -0.7070 -0.0135
vn -0.6991 -0.6991 -0.1502
vn -0.7029 -0.7030 -0.1082
vn -0.7041 -0.7041 -0.0922
vn -0.7056 -0.7056 -0.0658
vn -0.7049 -0.7049 -0.0786
vn -0.9238 -0.3827 -0.0135
vn -0.9185 -0.3804 -0.1082
vn -0.9199 -0.3811 -0.0922
vn -0.9134 -0.3783 -0.1502
vn -0.9210 -0.3815 -0.0786
vn -0.9219 -0.3818 -0.0657
vn -0.9941 -0.0000 -0.1082
vn -0.9999 -0.0000 -0.0135
vn -0.9957 -0.0000 -0.0922
vn -0.9887 -0.0000 -0.1502
vn -0.9969 -0.0000 -0.0786
vn -0.9185 0.3804 -0.1082
vn -0.9238 0.3826 -0.0135
vn -0.9134 0.3783 -0.1502
vn -0.9199 0.3811 -0.0922
vn -0.9210 0.3815 -0.0786
vn -0.9219 0.3818 -0.0658
vn -0.7030 0.7030 -0.1082
vn -0.7070 0.7070 -0.0135
vn -0.6991 0.6991 -0.1502
vn -0.7049 0.7049 -0.0786
vn -0.7041 0.7041 -0.0922
vn -0.7056 0.7056 -0.0658
vn -0.3804 0.9185 -0.1082
vn -0.3827 0.9238 -0.0135
vn -0.3783 0.9134 -0.1502
vn -0.3815 0.9210 -0.0786
vn -0.3811 0.9199 -0.0922
vn -0.3818 0.9219 -0.0657
vn -0.0000 0.9978 -0.0657
vn -0.9978 -0.0000 -0.0657
vt 0.460632 0.916289
vt 0.431676 0.853859
vt 0.476100 0.891142
vt 0.212517 0.338570
vt 0.259547 0.306156
vt 0.236579 0.358453
vt 0.259547 0.375930
vt 0.476100 0.830160
vt 0.460632 0.803609
vt 0.437482 0.785286
vt 0.410174 0.777982
vt 0.382867 0.782807
vt 0.359716 0.799028
vt 0.344248 0.824175
vt 0.338816 0.854420
vt 0.344248 0.885158
vt 0.359716 0.911709
vt 0.382867 0.930032
vt 0.410174 0.937336
vt 0.437482 0.932510
vt 0.440182 0.027287
vt 0.503192 0.121589
vt 0.481066 0.232825
vt 0.717854 0.613583
vt 0.759935 0.768752
vt 0.719051 0.772715
vt 0.702552 0.480154
vt 0.758144 0.609678
vt 0.161070 0.303297
vt 0.202196 0.462704
vt 0.169506 0.465873
vt 0.153470 0.153468
vt 0.189571 0.300535
vt 0.148123 0.007300
vt 0.178197 0.151072
vt 0.665213 0.615697
vt 0.665633 0.774859
vt 0.123831 0.304792
vt 0.126794 0.467587
vt 0.119285 0.008457
vt 0.121163 0.154765
vt 0.608235 0.615697
vt 0.607815 0.774859
vt 0.659840 0.481869
vt 0.083525 0.304792
vt 0.080563 0.467587
vt 0.088071 0.008457
vt 0.086194 0.154765
vt 0.555594 0.613583
vt 0.554397 0.772715
vt 0.570897 0.480154
vt 0.046287 0.303297
vt 0.037851 0.465873
vt 0.053886 0.153468
vt 0.059233 0.007300
vt 0.515304 0.609678
vt 0.513513 0.768752
vt 0.017786 0.300535
vt 0.005160 0.462704
vt 0.029159 0.151072
vt 0.037162 0.005160
vt 0.935495 0.613379
vt 0.975826 0.769012
vt 0.934900 0.772514
vt 0.921696 0.479786
vt 0.975826 0.609928
vt 0.645143 0.465774
vt 0.668391 0.300854
vt 0.677889 0.463236
vt 0.635133 0.153118
vt 0.639843 0.303066
vt 0.632604 0.006874
vt 0.659901 0.151199
vt 0.882834 0.614899
vt 0.881461 0.774057
vt 0.878968 0.481019
vt 0.602406 0.466665
vt 0.602806 0.153792
vt 0.602582 0.303843
vt 0.603749 0.007476
vt 0.825859 0.614257
vt 0.823646 0.773405
vt 0.832739 0.480499
vt 0.562284 0.303066
vt 0.556184 0.465774
vt 0.567844 0.153118
vt 0.572541 0.006874
vt 0.770256 0.770659
vt 0.773245 0.611551
vt 0.525081 0.300854
vt 0.513513 0.463236
vt 0.543731 0.005160
vt 0.535567 0.151199
vt 0.157340 0.774328
vt 0.207741 0.612474
vt 0.210730 0.771582
vt 0.148247 0.481421
vt 0.155127 0.615180
vt 0.454421 0.604062
vt 0.503192 0.764232
vt 0.460521 0.766770
vt 0.481138 0.452195
vt 0.491624 0.601849
vt 0.444164 0.307870
vt 0.448861 0.454114
vt 0.099525 0.774979
vt 0.098153 0.615822
vt 0.414122 0.604839
vt 0.414299 0.767661
vt 0.413899 0.454788
vt 0.412956 0.308471
vt 0.045491 0.614301
vt 0.046087 0.773436
vt 0.102019 0.481942
vt 0.376862 0.604062
vt 0.371561 0.766770
vt 0.381572 0.454114
vt 0.005160 0.610850
vt 0.005160 0.769934
vt 0.026566 0.477908
vt 0.348313 0.601849
vt 0.338816 0.764232
vt 0.356804 0.452195
vt 0.361992 0.306156
vt 0.941001 0.140703
vt 0.994840 0.297721
vt 0.941422 0.299866
vt 0.935628 0.006875
vt 0.993642 0.138589
vt 0.777153 0.465448
vt 0.811428 0.301158
vt 0.819865 0.463733
vt 0.771522 0.152626
vt 0.774190 0.302653
vt 0.769644 0.006318
vt 0.803829 0.151329
vt 0.884023 0.140703
vt 0.883603 0.299866
vt 0.889397 0.006875
vt 0.730921 0.465448
vt 0.736552 0.152626
vt 0.733884 0.302653
vt 0.738430 0.006318
vt 0.831382 0.138590
vt 0.830185 0.297721
vt 0.688209 0.463733
vt 0.696646 0.301158
vt 0.704245 0.151329
vt 0.440182 0.273709
vt 0.386764 0.295836
vt 0.328945 0.295836
vt 0.275527 0.273709
vt 0.234643 0.232825
vt 0.234643 0.068171
vt 0.212517 0.179407
vt 0.212517 0.121589
vt 0.275527 0.027287
vt 0.328945 0.005160
vt 0.386764 0.005160
vt 0.481066 0.068171
vt 0.503192 0.179407
vt 0.735242 0.476986
vt 0.170195 0.005160
vt 0.613608 0.481869
vt 0.538206 0.476986
vt 0.954420 0.476986
vt 0.654713 0.005160
vt 0.790049 0.478303
vt 0.190937 0.479226
vt 0.472974 0.306156
vt 0.059290 0.480708
vt 0.384101 0.307870
vt 0.978340 0.005160
vt 0.798482 0.005160
vt 0.846685 0.005160
vt 0.709592 0.005160
s 1
usemtl マテリアル.002
f 22/1/1 2/2/2 23/3/3
f 23/4/3 2/5/2 28/6/4
f 28/6/4 2/5/2 33/7/5
f 33/8/5 2/2/2 38/9/6
f 38/9/6 2/2/2 43/10/7
f 43/10/7 2/2/2 48/11/8
f 48/11/8 2/2/2 53/12/9
f 53/12/9 2/2/2 58/13/10
f 58/13/10 2/2/2 63/14/11
f 63/14/11 2/2/2 68/15/12
f 68/15/12 2/2/2 73/16/13
f 73/16/13 2/2/2 78/17/14
f 78/17/14 2/2/2 83/18/15
f 83/18/15 2/2/2 88/19/16
f 88/19/16 2/2/2 93/20/17
f 93/20/17 2/2/2 22/1/1
f 13/21/18 15/22/18 17/23/18
f 97/24/19 1/25/20 17/26/21
f 96/27/22 18/28/23 97/24/19
f 95/29/24 19/30/25 96/31/22
f 94/32/26 20/33/27 95/29/24
f 93/34/28 21/35/29 94/32/26
f 92/36/30 17/26/21 16/37/31
f 92/36/30 96/27/22 97/24/19
f 90/38/32 96/31/22 91/39/33
f 90/38/32 94/32/26 95/29/24
f 88/40/34 94/32/26 89/41/35
f 87/42/36 16/37/31 15/43/37
f 87/42/36 91/44/33 92/36/30
f 85/45/38 91/39/33 86/46/39
f 85/45/38 89/41/35 90/38/32
f 83/47/40 89/41/35 84/48/41
f 82/49/42 15/43/37 14/50/43
f 81/51/44 87/42/36 82/49/42
f 80/52/45 86/46/39 81/53/44
f 79/54/46 85/45/38 80/52/45
f 78/55/47 84/48/41 79/54/46
f 77/56/48 14/50/43 13/57/49
f 77/56/48 81/51/44 82/49/42
f 75/58/50 81/53/44 76/59/51
f 74/60/52 80/52/45 75/58/50
f 73/61/53 79/54/46 74/60/52
f 72/62/54 13/63/49 12/64/55
f 71/65/56 77/66/48 72/62/54
f 71/67/56 75/68/50 76/69/51
f 69/70/57 75/68/50 70/71/58
f 68/72/59 74/73/52 69/70/57
f 67/74/60 12/64/55 11/75/61
f 66/76/62 72/62/54 67/74/60
f 66/77/62 70/71/58 71/67/56
f 64/78/63 70/71/58 65/79/64
f 63/80/65 69/70/57 64/78/63
f 62/81/66 11/75/61 10/82/67
f 61/83/68 67/74/60 62/81/66
f 60/84/69 66/77/62 61/85/68
f 59/86/70 65/79/64 60/84/69
f 58/87/71 64/78/63 59/86/70
f 9/88/72 62/81/66 10/82/67
f 57/89/73 61/83/68 62/81/66
f 55/90/74 61/85/68 56/91/75
f 55/90/74 59/86/70 60/84/69
f 53/92/76 59/86/70 54/93/77
f 8/94/78 57/95/73 9/96/72
f 51/97/79 57/95/73 52/98/80
f 50/99/81 56/100/75 51/101/79
f 50/99/81 54/102/77 55/103/74
f 48/104/82 54/102/77 49/105/83
f 7/106/84 52/98/80 8/94/78
f 47/107/85 51/97/79 52/98/80
f 45/108/86 51/101/79 46/109/87
f 44/110/88 50/99/81 45/108/86
f 43/111/89 49/105/83 44/110/88
f 42/112/90 7/106/84 6/113/91
f 42/112/90 46/114/87 47/107/85
f 40/115/92 46/109/87 41/116/93
f 40/115/92 44/110/88 45/108/86
f 39/117/94 43/111/89 44/110/88
f 37/118/95 6/113/91 5/119/96
f 36/120/97 42/112/90 37/118/95
f 35/121/98 41/116/93 36/122/97
f 34/123/99 40/115/92 35/121/98
f 33/124/100 39/117/94 34/123/99
f 32/125/101 5/126/96 4/127/102
f 31/128/103 37/129/95 32/125/101
f 31/130/103 35/131/98 36/132/97
f 29/133/104 35/131/98 30/134/105
f 28/135/106 34/136/99 29/133/104
f 27/137/107 4/127/102 3/138/108
f 26/139/109 32/125/101 27/137/107
f 26/140/109 30/134/105 31/130/103
f 24/141/110 30/134/105 25/142/111
f 23/143/112 29/133/104 24/141/110
f 18/144/23 3/138/108 1/145/20
f 18/144/23 26/139/109 27/137/107
f 19/146/25 25/142/111 26/140/109
f 20/147/27 24/141/110 25/142/111
f 21/148/29 23/143/112 24/141/110
f 17/23/18 1/149/18 3/150/18
f 3/150/18 4/151/18 5/152/18
f 5/152/18 6/153/18 9/154/18
f 6/153/18 7/155/18 9/154/18
f 7/155/18 8/156/18 9/154/18
f 9/154/18 10/157/18 11/158/18
f 11/158/18 12/159/18 13/21/18
f 13/21/18 14/160/18 15/22/18
f 15/22/18 16/161/18 17/23/18
f 17/23/18 3/150/18 9/154/18
f 3/150/18 5/152/18 9/154/18
f 9/154/18 11/158/18 17/23/18
f 11/158/18 13/21/18 17/23/18
f 97/24/19 18/28/23 1/25/20
f 96/27/22 19/162/25 18/28/23
f 95/29/24 20/33/27 19/30/25
f 94/32/26 21/35/29 20/33/27
f 93/34/28 22/163/113 21/35/29
f 92/36/30 97/24/19 17/26/21
f 92/36/30 91/44/33 96/27/22
f 90/38/32 95/29/24 96/31/22
f 90/38/32 89/41/35 94/32/26
f 88/40/34 93/34/28 94/32/26
f 87/42/36 92/36/30 16/37/31
f 87/42/36 86/164/39 91/44/33
f 85/45/38 90/38/32 91/39/33
f 85/45/38 84/48/41 89/41/35
f 83/47/40 88/40/34 89/41/35
f 82/49/42 87/42/36 15/43/37
f 81/51/44 86/164/39 87/42/36
f 80/52/45 85/45/38 86/46/39
f 79/54/46 84/48/41 85/45/38
f 78/55/47 83/47/40 84/48/41
f 77/56/48 82/49/42 14/50/43
f 77/56/48 76/165/51 81/51/44
f 75/58/50 80/52/45 81/53/44
f 74/60/52 79/54/46 80/52/45
f 73/61/53 78/55/47 79/54/46
f 72/62/54 77/66/48 13/63/49
f 71/65/56 76/166/51 77/66/48
f 71/67/56 70/71/58 75/68/50
f 69/70/57 74/73/52 75/68/50
f 68/72/59 73/167/53 74/73/52
f 67/74/60 72/62/54 12/64/55
f 66/76/62 71/65/56 72/62/54
f 66/77/62 65/79/64 70/71/58
f 64/78/63 69/70/57 70/71/58
f 63/80/65 68/72/59 69/70/57
f 62/81/66 67/74/60 11/75/61
f 61/83/68 66/76/62 67/74/60
f 60/84/69 65/79/64 66/77/62
f 59/86/70 64/78/63 65/79/64
f 58/87/71 63/80/65 64/78/63
f 9/88/72 57/89/73 62/81/66
f 57/89/73 56/168/75 61/83/68
f 55/90/74 60/84/69 61/85/68
f 55/90/74 54/93/77 59/86/70
f 53/92/76 58/87/71 59/86/70
f 8/94/78 52/98/80 57/95/73
f 51/97/79 56/169/75 57/95/73
f 50/99/81 55/103/74 56/100/75
f 50/99/81 49/105/83 54/102/77
f 48/104/82 53/170/76 54/102/77
f 7/106/84 47/107/85 52/98/80
f 47/107/85 46/114/87 51/97/79
f 45/108/86 50/99/81 51/101/79
f 44/110/88 49/105/83 50/99/81
f 43/111/89 48/104/82 49/105/83
f 42/112/90 47/107/85 7/106/84
f 42/112/90 41/171/93 46/114/87
f 40/115/92 45/108/86 46/109/87
f 40/115/92 39/117/94 44/110/88
f 39/117/94 38/172/114 43/111/89
f 37/118/95 42/112/90 6/113/91
f 36/120/97 41/171/93 42/112/90
f 35/121/98 40/115/92 41/116/93
f 34/123/99 39/117/94 40/115/92
f 33/124/100 38/172/114 39/117/94
f 32/125/101 37/129/95 5/126/96
f 31/128/103 36/173/97 37/129/95
f 31/130/103 30/134/105 35/131/98
f 29/133/104 34/136/99 35/131/98
f 28/135/106 33/174/100 34/136/99
f 27/137/107 32/125/101 4/127/102
f 26/139/109 31/128/103 32/125/101
f 26/140/109 25/142/111 30/134/105
f 24/141/110 29/133/104 30/134/105
f 23/143/112 28/135/106 29/133/104
f 18/144/23 27/137/107 3/138/108
f 18/144/23 19/175/25 26/139/109
f 19/146/25 20/147/27 25/142/111
f 20/147/27 21/148/29 24/141/110
f 21/148/29 22/176/113 23/143/112
