# Blender 4.4.1
# www.blender.org
mtllib Thunder.mtl
o Cube
v -8.000000 50.000000 -1.000002
v -8.000000 50.000000 0.999998
v -8.000000 -50.000000 -0.999998
v -8.000000 -50.000000 1.000002
v 8.000000 50.000000 -1.000002
v 8.000000 50.000000 0.999998
v 8.000000 -50.000000 -0.999998
v 8.000000 -50.000000 1.000002
vn -0.0000 -0.0000 -1.0000
vn -0.0000 -1.0000 -0.0000
vn 1.0000 -0.0000 -0.0000
vn -0.0000 -0.0000 1.0000
vn -1.0000 -0.0000 -0.0000
vn -0.0000 1.0000 -0.0000
vt 0.347054 0.022043
vt 0.194107 0.977957
vt 0.194107 0.022043
vt 0.347054 0.997075
vt 0.194107 0.997075
vt 0.002925 0.977957
vt 0.022043 0.022043
vt 0.022043 0.977957
vt 0.174989 0.022043
vt 0.174989 0.977957
vt 0.194107 0.002924
vt 0.347054 0.002924
vt 0.347054 0.977957
vt 0.002925 0.022043
s 0
usemtl Material
f 5/1/1 3/2/1 1/3/1
f 3/2/2 8/4/2 4/5/2
f 7/6/3 6/7/3 8/8/3
f 2/9/4 8/8/4 6/7/4
f 1/3/5 4/10/5 2/9/5
f 5/1/6 2/11/6 6/12/6
f 5/1/1 7/13/1 3/2/1
f 3/2/2 7/13/2 8/4/2
f 7/6/3 5/14/3 6/7/3
f 2/9/4 4/10/4 8/8/4
f 1/3/5 3/2/5 4/10/5
f 5/1/6 1/3/6 2/11/6
