# Blender 5.0.1
# www.blender.org
mtllib sphere.mtl
o 球
v 0.000000 0.464060 -0.000000
v 0.000000 0.177588 -0.428736
v 0.000000 0.000000 -0.464060
v 0.000000 -0.177588 -0.428736
v 0.000000 -0.428736 -0.177588
v 0.000000 -0.464060 -0.000000
v 0.067960 0.428736 -0.164070
v 0.125574 0.328140 -0.303162
v 0.164070 0.177588 -0.396100
v 0.177588 0.000000 -0.428736
v 0.164070 -0.177588 -0.396100
v 0.125574 -0.328140 -0.303162
v 0.067960 -0.428736 -0.164070
v 0.125574 0.428736 -0.125574
v 0.232030 0.328140 -0.232030
v 0.303162 0.177588 -0.303162
v 0.328140 0.000000 -0.328140
v 0.303162 -0.177588 -0.303162
v 0.232030 -0.328140 -0.232030
v 0.125574 -0.428736 -0.125574
v 0.164070 0.428736 -0.067960
v 0.303162 0.328140 -0.125574
v 0.396100 0.177588 -0.164070
v 0.428736 0.000000 -0.177588
v 0.396100 -0.177588 -0.164070
v 0.303162 -0.328140 -0.125574
v 0.164070 -0.428736 -0.067960
v 0.177588 0.428736 -0.000000
v 0.328140 0.328140 -0.000000
v 0.428736 0.177588 0.000000
v 0.464060 0.000000 0.000000
v 0.428736 -0.177588 0.000000
v 0.328140 -0.328140 -0.000000
v 0.177588 -0.428736 -0.000000
v 0.164070 0.428736 0.067960
v 0.303162 0.328140 0.125574
v 0.396100 0.177588 0.164070
v 0.428736 0.000000 0.177588
v 0.396100 -0.177588 0.164070
v 0.303162 -0.328140 0.125574
v 0.164070 -0.428736 0.067960
v 0.125574 0.428736 0.125574
v 0.232030 0.328140 0.232030
v 0.303162 0.177588 0.303162
v 0.328140 0.000000 0.328140
v 0.303162 -0.177588 0.303162
v 0.232030 -0.328140 0.232030
v 0.125574 -0.428736 0.125574
v 0.067960 0.428736 0.164070
v 0.125574 0.328140 0.303162
v 0.164070 0.177588 0.396100
v 0.177588 0.000000 0.428736
v 0.164070 -0.177588 0.396100
v 0.125574 -0.328140 0.303162
v 0.067960 -0.428736 0.164070
v -0.000000 0.428736 0.177588
v -0.000000 0.328140 0.328140
v -0.000000 0.177588 0.428736
v -0.000000 0.000000 0.464060
v -0.000000 -0.177588 0.428736
v -0.000000 -0.328140 0.328140
v -0.000000 -0.428736 0.177588
v -0.067960 0.428736 0.164070
v -0.125574 0.328140 0.303162
v -0.164070 0.177588 0.396100
v -0.177588 0.000000 0.428736
v -0.164070 -0.177588 0.396100
v -0.125574 -0.328140 0.303162
v -0.067960 -0.428736 0.164070
v -0.125574 0.428736 0.125574
v -0.232030 0.328140 0.232030
v -0.303162 0.177588 0.303162
v -0.328140 0.000000 0.328140
v -0.303162 -0.177588 0.303162
v -0.232030 -0.328140 0.232030
v -0.125574 -0.428736 0.125574
v -0.164070 0.428736 0.067960
v -0.303162 0.328140 0.125574
v -0.396100 0.177588 0.164070
v -0.428736 0.000000 0.177588
v -0.396100 -0.177588 0.164070
v -0.303162 -0.328140 0.125574
v -0.164070 -0.428736 0.067960
v -0.177588 0.428736 -0.000000
v -0.328140 0.328140 -0.000000
v -0.428736 0.177588 -0.000000
v -0.464060 0.000000 -0.000000
v -0.428736 -0.177588 -0.000000
v -0.328140 -0.328140 -0.000000
v -0.177588 -0.428736 -0.000000
v -0.164070 0.428736 -0.067960
v -0.303162 0.328140 -0.125574
v -0.396100 0.177588 -0.164070
v -0.428736 0.000000 -0.177589
v -0.396100 -0.177588 -0.164070
v -0.303162 -0.328140 -0.125574
v -0.164070 -0.428736 -0.067960
v -0.125574 0.428736 -0.125574
v -0.232030 0.328140 -0.232030
v -0.303162 0.177588 -0.303162
v -0.328140 0.000000 -0.328140
v -0.303162 -0.177588 -0.303162
v -0.232030 -0.328140 -0.232030
v -0.125574 -0.428736 -0.125574
v -0.067960 0.428736 -0.164070
v -0.125574 0.328140 -0.303162
v -0.164070 0.177588 -0.396100
v -0.177588 0.000000 -0.428736
v -0.164070 -0.177588 -0.396100
v -0.125574 -0.328140 -0.303162
v -0.067960 -0.428736 -0.164070
v 0.000000 0.428736 -0.177588
v 0.000000 0.328140 -0.328140
v 0.000000 -0.328140 -0.328140
vn -0.0000 1.0000 -0.0000
vn -0.0000 0.3744 -0.9273
vn -0.0000 -0.0000 -1.0000
vn -0.0000 -0.3744 -0.9273
vn -0.0000 -0.9152 -0.4031
vn -0.0000 -1.0000 -0.0000
vn 0.1543 0.9152 -0.3724
vn 0.2751 0.6952 -0.6641
vn 0.3549 0.3744 -0.8567
vn 0.3827 -0.0000 -0.9239
vn 0.3549 -0.3744 -0.8567
vn 0.2751 -0.6952 -0.6641
vn 0.1543 -0.9152 -0.3724
vn 0.2850 0.9152 -0.2850
vn 0.5083 0.6952 -0.5083
vn 0.6557 0.3744 -0.6557
vn 0.7071 -0.0000 -0.7071
vn 0.6557 -0.3744 -0.6557
vn 0.5083 -0.6952 -0.5083
vn 0.2850 -0.9152 -0.2850
vn 0.3724 0.9152 -0.1543
vn 0.6641 0.6952 -0.2751
vn 0.8567 0.3744 -0.3549
vn 0.9239 -0.0000 -0.3827
vn 0.8567 -0.3744 -0.3549
vn 0.6641 -0.6952 -0.2751
vn 0.3724 -0.9152 -0.1543
vn 0.4031 0.9152 -0.0000
vn 0.7189 0.6952 -0.0000
vn 0.9273 0.3744 -0.0000
vn 1.0000 -0.0000 -0.0000
vn 0.9273 -0.3744 -0.0000
vn 0.7189 -0.6952 -0.0000
vn 0.4031 -0.9152 -0.0000
vn 0.3724 0.9152 0.1543
vn 0.6641 0.6952 0.2751
vn 0.8567 0.3744 0.3549
vn 0.9239 -0.0000 0.3827
vn 0.8567 -0.3744 0.3549
vn 0.6641 -0.6952 0.2751
vn 0.3724 -0.9152 0.1543
vn 0.2850 0.9152 0.2850
vn 0.5083 0.6952 0.5083
vn 0.6557 0.3744 0.6557
vn 0.7071 -0.0000 0.7071
vn 0.6557 -0.3744 0.6557
vn 0.5083 -0.6952 0.5083
vn 0.2850 -0.9152 0.2850
vn 0.1543 0.9152 0.3724
vn 0.2751 0.6952 0.6641
vn 0.3549 0.3744 0.8567
vn 0.3827 -0.0000 0.9239
vn 0.3549 -0.3744 0.8567
vn 0.2751 -0.6952 0.6641
vn 0.1543 -0.9152 0.3724
vn -0.0000 0.9152 0.4031
vn -0.0000 0.6952 0.7189
vn -0.0000 0.3744 0.9273
vn -0.0000 -0.0000 1.0000
vn -0.0000 -0.3744 0.9273
vn -0.0000 -0.6952 0.7189
vn -0.0000 -0.9152 0.4031
vn -0.1543 0.9152 0.3724
vn -0.2751 0.6952 0.6641
vn -0.3549 0.3744 0.8567
vn -0.3827 -0.0000 0.9239
vn -0.3549 -0.3744 0.8567
vn -0.2751 -0.6952 0.6641
vn -0.1543 -0.9152 0.3724
vn -0.2850 0.9152 0.2850
vn -0.5083 0.6952 0.5083
vn -0.6557 0.3744 0.6557
vn -0.7071 -0.0000 0.7071
vn -0.6557 -0.3744 0.6557
vn -0.5083 -0.6952 0.5083
vn -0.2850 -0.9152 0.2850
vn -0.3724 0.9152 0.1543
vn -0.6641 0.6952 0.2751
vn -0.8567 0.3744 0.3549
vn -0.9239 -0.0000 0.3827
vn -0.8567 -0.3744 0.3549
vn -0.6641 -0.6952 0.2751
vn -0.3724 -0.9152 0.1543
vn -0.4031 0.9152 -0.0000
vn -0.7189 0.6952 -0.0000
vn -0.9273 0.3744 -0.0000
vn -1.0000 -0.0000 -0.0000
vn -0.9273 -0.3744 -0.0000
vn -0.7189 -0.6952 -0.0000
vn -0.4031 -0.9152 -0.0000
vn -0.3724 0.9152 -0.1543
vn -0.6641 0.6952 -0.2751
vn -0.8567 0.3744 -0.3549
vn -0.9239 -0.0000 -0.3827
vn -0.8567 -0.3744 -0.3549
vn -0.6641 -0.6952 -0.2751
vn -0.3724 -0.9152 -0.1543
vn -0.2850 0.9152 -0.2850
vn -0.5083 0.6952 -0.5083
vn -0.6557 0.3744 -0.6557
vn -0.7071 -0.0000 -0.7071
vn -0.6557 -0.3744 -0.6557
vn -0.5083 -0.6952 -0.5083
vn -0.2850 -0.9152 -0.2850
vn -0.1543 0.9152 -0.3724
vn -0.2751 0.6952 -0.6641
vn -0.3549 0.3744 -0.8567
vn -0.3827 -0.0000 -0.9239
vn -0.3549 -0.3744 -0.8567
vn -0.2751 -0.6952 -0.6641
vn -0.1543 -0.9152 -0.3724
vn -0.0000 0.9152 -0.4031
vn -0.0000 0.6952 -0.7189
vn -0.0000 -0.6952 -0.7189
vt 0.171380 0.225944
vt 0.242369 0.176048
vt 0.255117 0.206181
vt 0.682540 0.672077
vt 0.732273 0.617543
vt 0.739162 0.679185
vt 0.665216 0.441165
vt 0.732285 0.537223
vt 0.652209 0.527170
vt 0.366316 0.418426
vt 0.413749 0.478094
vt 0.342761 0.474105
vt 0.302549 0.126841
vt 0.658293 0.608255
vt 0.695333 0.363336
vt 0.739196 0.450454
vt 0.426497 0.447961
vt 0.497485 0.490948
vt 0.326105 0.182519
vt 0.255117 0.238797
vt 0.812627 0.620873
vt 0.813455 0.372993
vt 0.819550 0.453783
vt 0.413749 0.510710
vt 0.800662 0.681734
vt 0.819260 0.540827
vt 0.342761 0.534372
vt 0.887122 0.617737
vt 0.870471 0.370593
vt 0.894045 0.450647
vt 0.426497 0.540843
vt 0.242369 0.268931
vt 0.857678 0.679334
vt 0.899892 0.537433
vt 0.366316 0.590051
vt 0.302549 0.298465
vt 0.218813 0.291994
vt 0.489883 0.352749
vt 0.447735 0.273944
vt 0.518246 0.318583
vt 0.951340 0.441523
vt 0.961908 0.527557
vt 0.409841 0.632666
vt 0.346002 0.260872
vt 0.410677 0.318583
vt 0.450052 0.563906
vt 0.386113 0.212555
vt 0.396698 0.092282
vt 0.444493 0.156833
vt 0.466709 0.655729
vt 0.202157 0.364143
vt 0.188037 0.304475
vt 0.501671 0.222464
vt 0.457274 0.716891
vt 0.382972 0.686758
vt 0.480829 0.576388
vt 0.559527 0.279182
vt 0.635184 0.297443
vt 0.609252 0.318353
vt 0.564277 0.171982
vt 0.413477 0.000000
vt 0.459303 0.041800
vt 0.514141 0.576388
vt 0.154724 0.304475
vt 0.607443 0.240545
vt 0.512257 0.102192
vt 0.528262 0.655729
vt 0.611998 0.686758
vt 0.537697 0.716891
vt 0.544918 0.563906
vt 0.123948 0.291994
vt 0.626019 0.130182
vt 0.654698 0.208553
vt 0.521045 0.000000
vt 0.579086 0.056948
vt 0.585129 0.632666
vt 0.140604 0.364143
vt 0.100392 0.268931
vt 0.677499 0.103428
vt 0.694099 0.188076
vt 0.652209 0.845622
vt 0.720168 0.768797
vt 0.714212 0.855575
vt 0.568473 0.540843
vt 0.628654 0.590051
vt 0.083736 0.341080
vt 0.700000 0.681734
vt 0.662885 0.759601
vt 0.652209 0.534372
vt 0.016656 0.242786
vt 0.087644 0.238797
vt 0.801373 0.939124
vt 0.726882 0.935895
vt 0.743842 0.688772
vt 0.794659 0.772026
vt 0.581221 0.510710
vt 0.756249 0.997529
vt 0.813262 1.000000
vt 0.794841 0.859070
vt 0.016656 0.182520
vt 0.087644 0.206181
vt 0.881731 0.935895
vt 0.800855 0.691243
vt 0.875017 0.768797
vt 0.581221 0.478094
vt 0.874766 0.997529
vt 0.881820 0.855575
vt 0.652209 0.474105
vt 0.568473 0.447961
vt 0.100392 0.176048
vt 0.955723 0.926699
vt 0.931396 0.990490
vt 0.949009 0.759601
vt 0.961908 0.845622
vt 0.628654 0.418426
vt 0.862359 0.688772
vt 0.040212 0.126841
vt 0.056868 0.030133
vt 0.083736 0.084226
vt 0.694099 0.104604
vt 0.724159 -0.000000
vt 0.752636 0.081869
vt 0.544918 0.424898
vt 0.585129 0.375812
vt 0.123948 0.152985
vt 0.788043 0.164790
vt 0.788043 0.281945
vt 0.749765 0.238348
vt 0.694099 0.164790
vt 0.749766 0.234705
vt 0.694099 0.251051
vt 0.154724 0.140504
vt 0.056948 0.439755
vt 0.041800 0.559539
vt -0.000000 0.497796
vt 0.208552 0.364143
vt 0.171982 0.454565
vt 0.130182 0.392822
vt 0.514141 0.412416
vt 0.131169 0.000000
vt 0.140604 0.061163
vt 0.102192 0.506585
vt 0.528262 0.352749
vt 0.092282 0.622144
vt 0.240545 0.411398
vt 0.222464 0.517170
vt 0.480829 0.412416
vt 0.188037 0.140504
vt 0.000000 0.605365
vt 0.038638 0.653280
vt 0.156833 0.574348
vt 0.297443 0.383657
vt 0.279182 0.459314
vt 0.218813 0.152985
vt 0.202157 0.061163
vt 0.285893 0.030133
vt 0.259025 0.084226
vt 0.273944 0.571107
vt 0.212555 0.632729
vt 0.409841 0.375812
vt 0.466709 0.352749
vt 0.143762 0.676080
vt 0.450052 0.424898
vt 0.318583 0.608164
vt 0.260872 0.672839
vt 0.188401 0.713138
vt 0.318583 0.500596
vt 0.342761 0.085812
vt 0.751955 0.370444
vt 0.326105 0.242786
vt 0.259025 0.341080
vt 0.914322 0.363609
vt 0.342761 0.143762
vt 0.365561 0.038638
vt 0.040212 0.298465
vt 0.634807 0.027990
vt 0.918989 0.681734
vt 0.000000 0.085812
vt 0.721475 0.333295
vt 0.752636 0.164790
vt 0.752636 0.000000
vt 0.786802 0.028362
vt 0.752636 0.107568
vt 0.318353 0.409589
vt 0.211592 -0.000000
vt 0.652209 0.352749
s 1
usemtl マテリアル
f 6/1/6 5/2/5 13/3/13
f 114/4/114 11/5/11 12/6/12
f 2/7/2 10/8/10 3/9/3
f 113/10/113 7/11/7 8/12/8
f 114/13/114 13/3/13 5/2/5
f 4/14/4 10/8/10 11/5/11
f 113/15/113 9/16/9 2/7/2
f 112/17/112 1/18/1 7/11/7
f 12/19/12 20/20/20 13/3/13
f 10/8/10 18/21/18 11/5/11
f 9/16/9 15/22/15 16/23/16
f 7/11/7 1/18/1 14/24/14
f 6/1/6 13/3/13 20/20/20
f 11/5/11 19/25/19 12/6/12
f 10/8/10 16/23/16 17/26/17
f 8/12/8 14/24/14 15/27/15
f 17/26/17 25/28/25 18/21/18
f 16/23/16 22/29/22 23/30/23
f 14/24/14 1/18/1 21/31/21
f 6/1/6 20/20/20 27/32/27
f 18/21/18 26/33/26 19/25/19
f 17/26/17 23/30/23 24/34/24
f 14/24/14 22/35/22 15/27/15
f 20/20/20 26/36/26 27/32/27
f 6/1/6 27/32/27 34/37/34
f 26/38/26 32/39/32 33/40/33
f 24/34/24 30/41/30 31/42/31
f 21/31/21 29/43/29 22/35/22
f 26/36/26 34/37/34 27/32/27
f 24/44/24 32/39/32 25/45/25
f 22/29/22 30/41/30 23/30/23
f 21/31/21 1/18/1 28/46/28
f 31/47/31 37/48/37 38/49/38
f 28/46/28 36/50/36 29/43/29
f 34/37/34 40/51/40 41/52/41
f 31/47/31 39/53/39 32/39/32
f 29/43/29 37/54/37 30/55/30
f 28/46/28 1/18/1 35/56/35
f 6/1/6 34/37/34 41/52/41
f 32/39/32 40/57/40 33/40/33
f 40/57/40 48/58/48 41/59/41
f 38/49/38 46/60/46 39/53/39
f 37/48/37 43/61/43 44/62/44
f 35/56/35 1/18/1 42/63/42
f 6/1/6 41/52/41 48/64/48
f 39/53/39 47/65/47 40/57/40
f 38/49/38 44/62/44 45/66/45
f 36/50/36 42/63/42 43/67/43
f 43/67/43 51/68/51 44/69/44
f 42/63/42 1/18/1 49/70/49
f 6/1/6 48/64/48 55/71/55
f 47/65/47 53/72/53 54/73/54
f 45/66/45 51/74/51 52/75/52
f 42/63/42 50/76/50 43/67/43
f 47/77/47 55/71/55 48/64/48
f 45/66/45 53/72/53 46/60/46
f 6/1/6 55/71/55 62/78/62
f 54/73/54 60/79/60 61/80/61
f 52/81/52 58/82/58 59/83/59
f 50/76/50 56/84/56 57/85/57
f 54/86/54 62/78/62 55/71/55
f 52/75/52 60/79/60 53/72/53
f 50/87/50 58/82/58 51/88/51
f 49/70/49 1/18/1 56/84/56
f 56/84/56 64/89/64 57/85/57
f 62/78/62 68/90/68 69/91/69
f 59/83/59 67/92/67 60/93/60
f 57/94/57 65/95/65 58/82/58
f 56/84/56 1/18/1 63/96/63
f 6/1/6 62/78/62 69/91/69
f 61/97/61 67/92/67 68/98/68
f 59/83/59 65/95/65 66/99/66
f 69/91/69 75/100/75 76/101/76
f 66/99/66 74/102/74 67/92/67
f 64/103/64 72/104/72 65/95/65
f 63/96/63 1/18/1 70/105/70
f 6/1/6 69/91/69 76/101/76
f 68/98/68 74/102/74 75/106/75
f 66/99/66 72/104/72 73/107/73
f 63/96/63 71/108/71 64/89/64
f 70/105/70 1/18/1 77/109/77
f 6/1/6 76/101/76 83/110/83
f 75/106/75 81/111/81 82/112/82
f 73/107/73 79/113/79 80/114/80
f 70/105/70 78/115/78 71/108/71
f 75/100/75 83/110/83 76/101/76
f 73/107/73 81/111/81 74/102/74
f 71/116/71 79/113/79 72/104/72
f 82/117/82 88/118/88 89/119/89
f 80/120/80 86/121/86 87/122/87
f 78/115/78 84/123/84 85/124/85
f 82/117/82 90/125/90 83/110/83
f 80/126/80 88/127/88 81/128/81
f 78/129/78 86/130/86 79/131/79
f 77/109/77 1/18/1 84/123/84
f 6/1/6 83/110/83 90/125/90
f 89/119/89 97/132/97 90/125/90
f 87/133/87 95/134/95 88/135/88
f 85/136/85 93/137/93 86/138/86
f 84/123/84 1/18/1 91/139/91
f 6/1/6 90/125/90 97/132/97
f 89/119/89 95/140/95 96/141/96
f 87/133/87 93/137/93 94/142/94
f 85/124/85 91/139/91 92/143/92
f 94/142/94 102/144/102 95/134/95
f 92/145/92 100/146/100 93/137/93
f 91/139/91 1/18/1 98/147/98
f 6/1/6 97/132/97 104/148/104
f 96/149/96 102/144/102 103/150/103
f 94/142/94 100/146/100 101/151/101
f 91/152/91 99/153/99 92/145/92
f 96/141/96 104/148/104 97/132/97
f 6/1/6 104/148/104 111/154/111
f 103/155/103 109/156/109 110/157/110
f 101/151/101 107/158/107 108/159/108
f 98/147/98 106/160/106 99/161/99
f 104/148/104 110/157/110 111/154/111
f 101/151/101 109/162/109 102/144/102
f 99/153/99 107/158/107 100/146/100
f 98/147/98 1/18/1 105/163/105
f 108/159/108 2/164/2 3/165/3
f 105/163/105 113/10/113 106/160/106
f 110/157/110 5/2/5 111/154/111
f 108/159/108 4/166/4 109/162/109
f 106/167/106 2/164/2 107/158/107
f 105/163/105 1/18/1 112/17/112
f 6/1/6 111/154/111 5/2/5
f 110/157/110 4/168/4 114/13/114
f 114/4/114 4/14/4 11/5/11
f 2/7/2 9/16/9 10/8/10
f 113/10/113 112/17/112 7/11/7
f 114/13/114 12/19/12 13/3/13
f 4/14/4 3/9/3 10/8/10
f 113/15/113 8/169/8 9/16/9
f 12/19/12 19/170/19 20/20/20
f 10/8/10 17/26/17 18/21/18
f 9/16/9 8/169/8 15/22/15
f 11/5/11 18/21/18 19/25/19
f 10/8/10 9/16/9 16/23/16
f 8/12/8 7/11/7 14/24/14
f 17/26/17 24/34/24 25/28/25
f 16/23/16 15/22/15 22/29/22
f 18/21/18 25/28/25 26/33/26
f 17/26/17 16/23/16 23/30/23
f 14/24/14 21/31/21 22/35/22
f 20/20/20 19/170/19 26/36/26
f 26/38/26 25/45/25 32/39/32
f 24/34/24 23/30/23 30/41/30
f 21/31/21 28/46/28 29/43/29
f 26/36/26 33/171/33 34/37/34
f 24/44/24 31/47/31 32/39/32
f 22/29/22 29/172/29 30/41/30
f 31/47/31 30/173/30 37/48/37
f 28/46/28 35/56/35 36/50/36
f 34/37/34 33/171/33 40/51/40
f 31/47/31 38/49/38 39/53/39
f 29/43/29 36/50/36 37/54/37
f 32/39/32 39/53/39 40/57/40
f 40/57/40 47/65/47 48/58/48
f 38/49/38 45/66/45 46/60/46
f 37/48/37 36/174/36 43/61/43
f 39/53/39 46/60/46 47/65/47
f 38/49/38 37/48/37 44/62/44
f 36/50/36 35/56/35 42/63/42
f 43/67/43 50/76/50 51/68/51
f 47/65/47 46/60/46 53/72/53
f 45/66/45 44/62/44 51/74/51
f 42/63/42 49/70/49 50/76/50
f 47/77/47 54/86/54 55/71/55
f 45/66/45 52/75/52 53/72/53
f 54/73/54 53/72/53 60/79/60
f 52/81/52 51/88/51 58/82/58
f 50/76/50 49/70/49 56/84/56
f 54/86/54 61/175/61 62/78/62
f 52/75/52 59/176/59 60/79/60
f 50/87/50 57/94/57 58/82/58
f 56/84/56 63/96/63 64/89/64
f 62/78/62 61/175/61 68/90/68
f 59/83/59 66/99/66 67/92/67
f 57/94/57 64/103/64 65/95/65
f 61/97/61 60/93/60 67/92/67
f 59/83/59 58/82/58 65/95/65
f 69/91/69 68/90/68 75/100/75
f 66/99/66 73/107/73 74/102/74
f 64/103/64 71/116/71 72/104/72
f 68/98/68 67/92/67 74/102/74
f 66/99/66 65/95/65 72/104/72
f 63/96/63 70/105/70 71/108/71
f 75/106/75 74/102/74 81/111/81
f 73/107/73 72/104/72 79/113/79
f 70/105/70 77/109/77 78/115/78
f 75/100/75 82/117/82 83/110/83
f 73/107/73 80/114/80 81/111/81
f 71/116/71 78/177/78 79/113/79
f 82/117/82 81/178/81 88/118/88
f 80/179/80 79/131/79 86/130/86
f 78/115/78 77/109/77 84/123/84
f 82/117/82 89/119/89 90/125/90
f 80/120/80 87/122/87 88/180/88
f 78/181/78 85/182/85 86/183/86
f 89/119/89 96/141/96 97/132/97
f 87/133/87 94/142/94 95/134/95
f 85/136/85 92/145/92 93/137/93
f 89/119/89 88/118/88 95/140/95
f 87/133/87 86/138/86 93/137/93
f 85/124/85 84/123/84 91/139/91
f 94/142/94 101/151/101 102/144/102
f 92/145/92 99/153/99 100/146/100
f 96/149/96 95/134/95 102/144/102
f 94/142/94 93/137/93 100/146/100
f 91/152/91 98/184/98 99/153/99
f 96/141/96 103/155/103 104/148/104
f 103/155/103 102/185/102 109/156/109
f 101/151/101 100/146/100 107/158/107
f 98/147/98 105/163/105 106/160/106
f 104/148/104 103/155/103 110/157/110
f 101/151/101 108/159/108 109/162/109
f 99/153/99 106/167/106 107/158/107
f 108/159/108 107/158/107 2/164/2
f 105/163/105 112/17/112 113/10/113
f 110/157/110 114/13/114 5/2/5
f 108/159/108 3/165/3 4/166/4
f 106/186/106 113/15/113 2/7/2
f 110/157/110 109/156/109 4/168/4
