# Blender 4.4.1
# www.blender.org
mtllib wind.mtl
o Cube
v 1.000000 1.000000 -1.000000
v 1.000000 -1.000000 -1.000000
v 1.000000 1.000000 1.000000
v 1.000000 -1.000000 1.000000
v -1.000000 1.000000 -1.000000
v -1.000000 -1.000000 -1.000000
v -1.000000 1.000000 1.000000
v -1.000000 -1.000000 1.000000
vn -0.0000 1.0000 -0.0000
vn -0.0000 -0.0000 1.0000
vn -1.0000 -0.0000 -0.0000
vn -0.0000 -1.0000 -0.0000
vn 1.0000 -0.0000 -0.0000
vn -0.0000 -0.0000 -1.0000
vt 0.625000 0.500000
vt 0.875000 0.500000
vt 0.875000 0.750000
vt 0.625000 0.750000
vt 0.375000 0.750000
vt 0.625000 1.000000
vt 0.375000 1.000000
vt 0.375000 0.000000
vt 0.625000 0.000000
vt 0.625000 0.250000
vt 0.375000 0.250000
vt 0.125000 0.500000
vt 0.375000 0.500000
vt 0.125000 0.750000
s 0
usemtl Material
f 1/1/1 5/2/1 7/3/1 3/4/1
f 4/5/2 3/4/2 7/6/2 8/7/2
f 8/8/3 7/9/3 5/10/3 6/11/3
f 6/12/4 2/13/4 4/5/4 8/14/4
f 2/13/5 1/1/5 3/4/5 4/5/5
f 6/11/6 5/10/6 1/1/6 2/13/6
o Cube.001
v -35.852837 6.000000 -2.000000
v -35.852837 6.000000 2.000000
v -35.852837 -6.000000 -2.000000
v -35.852837 -6.000000 2.000000
v 48.000000 6.000000 -2.000000
v 48.000000 6.000000 2.000000
v 48.000000 -6.000000 -2.000000
v 48.000000 -6.000000 2.000000
v -47.754734 6.000000 -2.000000
v -47.754734 6.000000 2.000000
v -47.754734 -6.000000 -2.000000
v -47.754734 -6.000000 2.000000
v -35.754734 6.000000 -2.000000
v -35.754734 6.000000 2.000000
v -35.754734 -6.000000 -2.000000
v -35.754734 -6.000000 2.000000
vn -0.0000 -0.0000 -1.0000
vn -0.0000 -1.0000 -0.0000
vn 1.0000 -0.0000 -0.0000
vn -0.0000 -0.0000 1.0000
vn -1.0000 -0.0000 -0.0000
vn -0.0000 1.0000 -0.0000
vt 0.043943 0.043943
vt 0.174473 0.956057
vt 0.043943 0.956057
vt 0.217984 0.043943
vt 0.217984 0.956057
vt 0.174473 0.043943
vt 0.043943 0.000432
vt 0.174473 0.000432
vt 0.348514 0.956057
vt 0.348514 0.043943
vt 0.174473 0.999568
vt 0.043943 0.999568
vt 0.000432 0.956057
vt 0.000432 0.043943
vt 0.392890 0.305004
vt 0.523420 0.174474
vt 0.523420 0.305004
vt 0.392890 0.130963
vt 0.523420 0.130963
vt 0.392890 0.174474
vt 0.349379 0.305004
vt 0.349379 0.174473
vt 0.523420 0.000432
vt 0.392890 0.000432
vt 0.566931 0.174474
vt 0.566931 0.305004
vt 0.523420 0.348515
vt 0.392890 0.348515
s 1
usemtl Material.001
f 13/15/7 11/16/7 9/17/7
f 11/16/8 16/18/8 12/19/8
f 15/20/9 14/21/9 16/22/9
f 10/23/10 16/18/10 14/24/10
f 9/17/11 12/25/11 10/26/11
f 13/15/12 10/27/12 14/28/12
f 21/29/7 19/30/7 17/31/7
f 19/30/8 24/32/8 20/33/8
f 23/34/9 22/35/9 24/36/9
f 18/37/10 24/32/10 22/38/10
f 17/31/11 20/39/11 18/40/11
f 21/29/12 18/41/12 22/42/12
f 13/15/7 15/20/7 11/16/7
f 11/16/8 15/20/8 16/18/8
f 15/20/9 13/15/9 14/21/9
f 10/23/10 12/19/10 16/18/10
f 9/17/11 11/16/11 12/25/11
f 13/15/12 9/17/12 10/27/12
f 21/29/7 23/34/7 19/30/7
f 19/30/8 23/34/8 24/32/8
f 23/34/9 21/29/9 22/35/9
f 18/37/10 20/33/10 24/32/10
f 17/31/11 19/30/11 20/39/11
f 21/29/12 17/31/12 18/41/12
